<svg width="13" height="14" viewBox="0 0 13 14" fill="none" xmlns="http://www.w3.org/2000/svg">
<path d="M11.9167 1.07692H10.2917V0.538462C10.2917 0.395653 10.2346 0.258693 10.133 0.157712C10.0314 0.0567306 9.89366 0 9.75 0C9.60634 0 9.46857 0.0567306 9.36698 0.157712C9.2654 0.258693 9.20833 0.395653 9.20833 0.538462V1.07692H3.79167V0.538462C3.79167 0.395653 3.7346 0.258693 3.63302 0.157712C3.53143 0.0567306 3.39366 0 3.25 0C3.10634 0 2.96857 0.0567306 2.86698 0.157712C2.7654 0.258693 2.70833 0.395653 2.70833 0.538462V1.07692H1.08333C0.796016 1.07692 0.520465 1.19038 0.317301 1.39235C0.114137 1.59431 0 1.86823 0 2.15385V12.9231C0 13.2087 0.114137 13.4826 0.317301 13.6846C0.520465 13.8865 0.796016 14 1.08333 14H11.9167C12.204 14 12.4795 13.8865 12.6827 13.6846C12.8859 13.4826 13 13.2087 13 12.9231V2.15385C13 1.86823 12.8859 1.59431 12.6827 1.39235C12.4795 1.19038 12.204 1.07692 11.9167 1.07692ZM2.70833 2.15385V2.69231C2.70833 2.83512 2.7654 2.97208 2.86698 3.07306C2.96857 3.17404 3.10634 3.23077 3.25 3.23077C3.39366 3.23077 3.53143 3.17404 3.63302 3.07306C3.7346 2.97208 3.79167 2.83512 3.79167 2.69231V2.15385H9.20833V2.69231C9.20833 2.83512 9.2654 2.97208 9.36698 3.07306C9.46857 3.17404 9.60634 3.23077 9.75 3.23077C9.89366 3.23077 10.0314 3.17404 10.133 3.07306C10.2346 2.97208 10.2917 2.83512 10.2917 2.69231V2.15385H11.9167V4.30769H1.08333V2.15385H2.70833ZM11.9167 12.9231H1.08333V5.38462H11.9167V12.9231Z" fill="black"/>
</svg>
