<svg width="60" height="60" viewBox="0 0 60 60" fill="none" xmlns="http://www.w3.org/2000/svg">
<path d="M55.6469 11.9705C54.3737 11.9705 53.2266 12.5199 52.4298 13.3942H49.8442C49.799 10.1378 47.1376 7.50232 43.8708 7.50232H17.06C13.7931 7.50232 11.1317 10.1379 11.0865 13.3943H7.57033C6.77357 12.5201 5.62642 11.9706 4.35317 11.9706C1.95282 11.9705 0 13.9233 0 16.3236C0 18.724 1.95282 20.6768 4.35317 20.6768C5.62642 20.6768 6.77357 20.1273 7.57033 19.2531H11.0844V46.8059C11.0844 47.2913 11.478 47.6848 11.9633 47.6848H18.0842V51.6188C18.0842 52.1042 18.4777 52.4977 18.9631 52.4977H48.9674C49.4528 52.4977 49.8463 52.1042 49.8463 51.6188V19.2531H52.4298C53.2266 20.1273 54.3737 20.6768 55.6469 20.6768C58.0472 20.6768 60 18.724 60 16.3236C60 13.9521 58.0159 11.9705 55.6469 11.9705ZM6.59298 17.6309C6.13572 18.4211 5.26478 18.919 4.35317 18.919C2.92208 18.919 1.75782 17.7547 1.75782 16.3236C1.75782 14.8925 2.92208 13.7283 4.35317 13.7283C6.31677 13.7283 7.57455 15.9344 6.59298 17.6309ZM11.0844 17.4952H8.5472C8.55224 17.477 8.55576 17.4585 8.56056 17.4402C8.75346 16.7119 8.75357 15.9354 8.56056 15.2071C8.55576 15.1888 8.55224 15.1701 8.5472 15.152H11.0844V17.4952ZM39.6563 13.346C39.6663 13.0215 39.7139 12.6991 39.7972 12.3854C40.0782 11.3276 40.9058 10.1042 41.9823 9.73088C42.6146 9.51162 43.3163 9.41529 43.9684 9.26107C46.2215 9.31264 48.0436 11.1395 48.0877 13.3942H39.6552C39.6555 13.3782 39.6559 13.3622 39.6563 13.346ZM12.8423 39.4347H37.8952V41.5852H12.8423V39.4347ZM12.8423 45.927V43.343H37.8952V45.927H12.8423ZM48.0885 50.7399H19.842V47.6848C19.842 47.6848 38.7716 47.6848 38.7741 47.6848C39.1334 47.6848 39.4688 47.4453 39.5974 47.1118C39.635 47.0142 39.653 46.9104 39.653 46.8059V26.9448C39.653 26.4594 39.2595 26.0659 38.7741 26.0659C38.2887 26.0659 37.8952 26.4594 37.8952 26.9448V37.6769H12.8423V13.4778C12.8423 11.1521 14.7344 9.26014 17.06 9.26014H39.6345C38.7443 10.1504 38.1564 11.3034 37.9645 12.5674C37.9643 12.5692 37.9639 12.571 37.9637 12.5728C37.8816 13.1376 37.8952 23.4293 37.8952 23.4293C37.8952 23.9147 38.2887 24.3082 38.7741 24.3082C39.2595 24.3082 39.653 23.9147 39.653 23.4293V19.2531H48.0885V50.7399ZM51.4396 17.4403C51.4445 17.4585 51.4479 17.4771 51.4529 17.4953H39.653V15.1521H51.4529C51.4479 15.1703 51.4444 15.1889 51.4396 15.2072C51.2474 15.9326 51.2475 16.7148 51.4396 17.4403ZM55.6471 18.919C54.2495 18.919 53.0517 17.7225 53.0517 16.3236C53.0517 14.9103 54.2371 13.7283 55.6471 13.7283C57.0605 13.7283 58.2423 14.912 58.2423 16.3236C58.2423 17.7547 57.078 18.919 55.6471 18.919Z" fill="white"/>
</svg>
